<?xml version="1.0" encoding="UTF-8" standalone="no"?>
<svg
   xmlns:dc="http://purl.org/dc/elements/1.1/"
   xmlns:cc="http://creativecommons.org/ns#"
   xmlns:rdf="http://www.w3.org/1999/02/22-rdf-syntax-ns#"
   xmlns:svg="http://www.w3.org/2000/svg"
   xmlns="http://www.w3.org/2000/svg"
   viewBox="0 0 4000 -1500"
   height="2912"
   width="4076"
   xml:space="preserve"
   id="svg2"
   version="1.1"><metadata
     id="metadata8"><rdf:RDF><cc:Work
         rdf:about=""><dc:format>image/svg+xml</dc:format><dc:type
           rdf:resource="http://purl.org/dc/dcmitype/StillImage" /></cc:Work></rdf:RDF></metadata><defs
     id="defs6"><clipPath
       id="clipPath18"
       clipPathUnits="userSpaceOnUse"><path
         id="path16"
         d="M 0,2184 H 3057 V 0 H 0 Z" /></clipPath></defs><g
     transform="matrix(1.3333333,0,0,-1.3333333,0,2912)"
     id="g10"><g
       id="g12"><g
         clip-path="url(#clipPath18)"
         id="g14"><g
           transform="translate(711,1374.9932)"
           id="g20"><path
             id="path22"
             style="fill:#16406a;fill-opacity:1;fill-rule:nonzero;stroke:none"
             d="m 0,0 v -650.987 c -179.538,0.271 -325,145.892 -325,325.494 C -325,-145.892 -179.538,-0.271 0,0" /></g><g
           transform="translate(2544,1049.5)"
           id="g24"><path
             id="path26"
             style="fill:#ffffff;fill-opacity:1;fill-rule:nonzero;stroke:none"
             d="M 0,0 C 0,179.434 -145.192,324.945 -324.5,325.486 V 325.5 H -1834 v -651 h 1509.5 v 0.014 C -145.192,-324.945 0,-179.434 0,0" /></g></g></g><text
       id="text30"
       style="font-variant:normal;font-weight:bold;font-stretch:normal;font-size:521px;font-family:Muli;-inkscape-font-specification:Muli-Bold;writing-mode:lr-tb;fill:#16406a;fill-opacity:1;fill-rule:nonzero;stroke:none"
       transform="matrix(1,0,0,-1,1004.666,905.8564)"><tspan
         id="tspan28"
         y="0"
         x="0 315.20499 506.67249 777.07147 897.94348">atyla</tspan></text>
<g
       transform="translate(710.7798,1372.501)"
       id="g32"><path
         id="path34"
         style="fill:#16406a;fill-opacity:1;fill-rule:nonzero;stroke:none"
         d="M 0,0 0.411,-371.389 175.753,-500.927 Z" /></g><g
       transform="translate(710.7798,1372.501)"
       id="g36"><path
         id="path38"
         style="fill:none;stroke:#16406a;stroke-width:1;stroke-linecap:butt;stroke-linejoin:miter;stroke-miterlimit:10;stroke-dasharray:none;stroke-opacity:1"
         d="M 0,0 0.411,-371.389 175.753,-500.927 Z" /></g><g
       transform="translate(533.9019,870.2617)"
       id="g40"><path
         id="path42"
         style="fill:#ffffff;fill-opacity:1;fill-rule:nonzero;stroke:none"
         d="m 0,0 176.387,130.992 -0.289,370.746 z" /></g><g
       transform="translate(533.9019,870.2617)"
       id="g44"><path
         id="path46"
         style="fill:none;stroke:#ffffff;stroke-width:1;stroke-linecap:butt;stroke-linejoin:miter;stroke-miterlimit:10;stroke-dasharray:none;stroke-opacity:1"
         d="m 0,0 176.387,130.992 -0.289,370.746 z" /></g><g
       transform="translate(711.5,959.6338)"
       id="g48"><path
         id="path50"
         style="fill:#16406a;fill-opacity:1;fill-rule:nonzero;stroke:none"
         d="M 0,0 0.266,-233.409 72.929,-52.865 Z" /></g><g
       transform="translate(711.5,959.6338)"
       id="g52"><path
         id="path54"
         style="fill:none;stroke:#16406a;stroke-width:1;stroke-linecap:butt;stroke-linejoin:miter;stroke-miterlimit:10;stroke-dasharray:none;stroke-opacity:1"
         d="M 0,0 0.266,-233.409 72.929,-52.865 Z" /></g><g
       transform="translate(638.5552,906.7383)"
       id="g56"><path
         id="path58"
         style="fill:#ffffff;fill-opacity:1;fill-rule:nonzero;stroke:none"
         d="M 0,0 13.952,-34.586 15.57,-38.598 28.975,-71.827 72.19,-180.357 71.945,52.762 Z" /></g><g
       transform="translate(638.5552,906.7383)"
       id="g60"><path
         id="path62"
         style="fill:none;stroke:#ffffff;stroke-width:1;stroke-linecap:butt;stroke-linejoin:miter;stroke-miterlimit:10;stroke-dasharray:none;stroke-opacity:1"
         d="M 0,0 13.952,-34.586 15.57,-38.598 28.975,-71.827 72.19,-180.357 71.945,52.762 Z" /></g></g></svg>